# xmcd
#
# Track frame offsets:
#	150
#	13952
#	31780
#	46632
#	65502
#	77465
#	95540
#	112997
#	128245
#	147230
#
# Disc length: 2172 seconds
# Revision: 2
# Processed by: cddbd v1.5.2PL0 Copyright (c) Steve Scherf et al.
# Submitted via: dBpowerAMP V12.0
#
DISCID=78087a0a
DTITLE=Various Artist - American Folk Blues Festival (1967)
DYEAR=1967
DGENRE=Blues Mix
TTITLE0=Bukka White - Aberdeen Blues
TTITLE1=Hound Dog Taylor - Sky Is Crying
TTITLE2=Sonny Terry and Brownie McGhee - Rock Island Line
TTITLE3=Son House - Got a Letter This Morning
TTITLE4=Little Walter - You Be So Fine
TTITLE5=Koko Taylor - Wang Dang Doodle
TTITLE6=Skip James - Hard Luck Child
TTITLE7=Brownie McGhee - I'm Gonna Move Across the River
TTITLE8=Koko Taylor - What Kind of Man Is This
TTITLE9=Sonny Terry - Walk On
EXTD=
EXTT0=
EXTT1=
EXTT2=
EXTT3=
EXTT4=
EXTT5=
EXTT6=
EXTT7=
EXTT8=
EXTT9=
PLAYORDER=
